<svg width="1185" height="400" viewBox="0 0 1185 400" fill="none" xmlns="http://www.w3.org/2000/svg">
<path d="M306.817 355.254H352.214V359.923C352.214 371.167 348.197 380.675 340.148 388.461C332.02 396.154 321.257 400 307.841 400C294.425 400 282.637 395.456 273.719 386.382C264.723 377.216 260.225 366.096 260.225 353.052C260.225 340.008 264.723 328.887 273.719 319.705C282.622 310.632 294.006 306.088 307.841 306.088C316.138 306.088 323.847 308.12 330.935 312.183C337.945 316.247 343.343 321.644 347.158 328.391L339.109 333.059C336.255 327.522 332.021 323.118 326.39 319.83C320.76 316.541 314.587 314.897 307.841 314.897C296.425 314.897 287.166 318.573 280.078 325.925C272.897 333.37 269.314 342.396 269.314 353.036C269.314 363.676 272.897 372.718 280.078 380.147C287.166 387.499 296.425 391.175 307.841 391.175C318.046 391.175 326.22 388.631 332.362 383.529C338.411 378.333 341.916 371.772 342.877 363.816H306.817V355.254Z" fill="white"/>
<path d="M479.349 398.449H468.973L447.693 362.124H422.273V398.449H413.2V307.638H449.524C456.953 307.638 463.358 310.321 468.725 315.672C474.091 321.039 476.775 327.429 476.775 334.874C476.775 341.093 474.913 346.599 471.191 351.345C467.639 356.014 462.971 359.209 457.186 360.946L479.365 398.433L479.349 398.449ZM449.508 316.2H422.273V353.563H449.508C454.518 353.563 458.799 351.748 462.35 348.119C465.902 344.319 467.67 339.899 467.67 334.889C467.67 329.879 465.902 325.382 462.35 321.659C458.799 318.03 454.518 316.215 449.508 316.215V316.2Z" fill="white"/>
<path d="M612.843 386.382C603.769 395.455 592.649 400 579.496 400C566.344 400 555.239 395.455 546.15 386.382C537.077 377.122 532.532 366.017 532.532 353.051C532.532 340.085 537.077 328.918 546.15 319.845C555.223 310.678 566.344 306.087 579.496 306.087C592.649 306.087 603.754 310.678 612.843 319.845C621.916 328.918 626.46 339.992 626.46 353.051C626.46 366.11 621.916 377.138 612.843 386.382ZM552.525 380.162C559.783 387.514 568.779 391.19 579.512 391.19C590.245 391.19 599.225 387.514 606.499 380.162C613.758 372.811 617.402 363.768 617.402 353.051C617.402 342.334 613.773 333.416 606.499 326.064C599.24 318.635 590.245 314.912 579.512 314.912C568.779 314.912 559.799 318.635 552.525 326.064C545.266 333.416 541.621 342.411 541.621 353.051C541.621 363.691 545.25 372.811 552.525 380.162Z" fill="white"/>
<path d="M685.491 367.568V307.638H694.564V367.568C694.564 374.92 696.751 380.69 701.109 384.893C705.468 389.096 711.501 391.19 719.21 391.19C726.918 391.19 732.936 389.096 737.31 384.893C741.668 380.705 743.855 374.92 743.855 367.568V307.638H752.928V367.568C752.928 377.433 749.811 385.296 743.591 391.174C737.279 397.053 729.151 400 719.21 400C709.268 400 701.125 397.068 694.828 391.174C688.609 385.296 685.491 377.417 685.491 367.568Z" fill="white"/>
<path d="M817.806 307.638H850.237C858.364 307.638 865.158 310.368 870.602 315.812C876.046 321.256 878.776 328.049 878.776 336.176C878.776 344.304 876.046 351.097 870.602 356.541C865.158 361.985 858.364 364.715 850.237 364.715H826.88V398.449H817.806V307.638ZM826.88 356.153H850.237C855.852 356.153 860.489 354.292 864.119 350.57C867.841 346.847 869.702 342.055 869.702 336.176C869.702 330.298 867.841 325.63 864.119 321.907C860.489 318.107 855.852 316.2 850.237 316.2H826.88V356.153Z" fill="white"/>
<path d="M0 228.336V0.26355H40.729V228.336H0Z" fill="white"/>
<path d="M301.388 0.26355V228.336H260.659V83.0243L220.581 113.656L187.344 139.403L154.106 113.656L114.028 83.0243V228.336H73.2993V0.26355L114.028 31.547L187.344 87.9099L260.659 31.547L301.388 0.26355Z" fill="white"/>
<path d="M553.889 228.336H508.275L487.429 187.607L437.581 89.8641L387.732 187.607L366.887 228.336H321.272L342.117 187.607L437.581 0.26355L533.044 187.607L553.889 228.336Z" fill="white"/>
<path d="M1001.64 228.336H956.029L935.184 187.607L885.335 89.8641L835.487 187.607L814.641 228.336H769.027L789.872 187.607L885.335 0.26355L980.799 187.607L1001.64 228.336Z" fill="white"/>
<path d="M1184.43 0.589203V41.3182H1090.92V228.662H1050.19V41.3182H956.68V0.589203H1184.43Z" fill="white"/>
<path d="M746.119 227.654H705.483L657.743 144.723H613.881V227.654H576.797V0H667.111C687.321 0 704.413 7.15005 718.387 21.4657C732.579 35.347 739.667 52.5785 739.667 73.1756C739.667 87.7084 735.526 100.985 727.243 113.021C718.961 125.056 708.166 133.788 694.828 139.201L746.103 227.654H746.119ZM667.096 35.1299H613.881V105.715H667.096C676.976 105.715 685.367 102.024 692.253 94.6568C699.124 87.2896 702.272 79.7208 702.272 69.0965C702.272 61.264 699.139 53.5556 692.253 46.1729C685.367 38.8057 676.976 35.1144 667.096 35.1144V35.1299Z" fill="white"/>
</svg>
