<svg width="84" height="45" viewBox="0 0 84 45" fill="none" xmlns="http://www.w3.org/2000/svg">
<path d="M5.80319 20.3929H10.9043V16.8577H11.9957V25.0432H10.9043V21.4368H5.80319V25.0432H4.71179V16.8577H5.80319V20.3929ZM14.0288 16.8577L16.9945 21.1877L19.9129 16.8577H21.1941L17.5165 22.2672V25.0432H16.4251V22.2554L12.712 16.8577H14.0288ZM28.9744 19.7167C28.9744 21.8402 28.0491 22.7892 26.1154 22.7892H22.9954V25.0432H21.904V16.8577H26.0917C28.1203 16.8577 28.9744 17.6525 28.9744 19.7167ZM22.9954 17.9016V21.7453H26.1154C27.2661 21.7453 27.8593 21.2233 27.8593 19.7167C27.8593 18.2812 27.4203 17.9016 26.0917 17.9016H22.9954ZM36.3581 25.0432H30.1062V16.8577H36.3462V17.9016H31.1976V20.3929H36.2276V21.4368H31.1976V23.9993H36.3581V25.0432ZM43.1418 25.0432L39.1321 21.2707H41.6945C42.8808 21.2707 43.4977 20.9149 43.4977 19.4913C43.4977 18.1982 43.0588 17.9016 41.6708 17.9016H38.6932V25.0432H37.6018V16.8577H41.6708C43.7587 16.8577 44.6128 17.5932 44.6128 19.4913C44.6128 21.3063 43.735 22.1605 41.9318 22.1249H41.4573L44.684 25.0432H43.1418ZM46.5378 16.8577L52.3863 23.1333V16.8577H53.454V25.0432H52.7422L46.9412 18.7795V25.0432H45.8735V16.8577H46.5378ZM58.9678 25.2212C56.2037 25.2212 54.7564 24.2721 54.7564 20.9623C54.7564 17.5101 56.3461 16.6797 58.9678 16.6797C61.6014 16.6797 63.1792 17.5101 63.1792 20.9623C63.1792 24.2721 61.7319 25.2212 58.9678 25.2212ZM58.9678 24.1772C60.9252 24.1772 62.0641 23.7264 62.0641 20.9623C62.0641 18.1152 60.9252 17.7237 58.9678 17.7237C57.0104 17.7237 55.8716 18.0796 55.8716 20.9623C55.8716 23.7264 57.0104 24.1772 58.9678 24.1772ZM68.1978 25.0432H67.4623L63.5356 16.8577H64.8049L67.8538 23.4536L70.8551 16.8577H72.077L68.1978 25.0432ZM74.6439 16.8577H75.415L79.2586 25.0432H78.0249L77.3131 23.4654H72.6865L71.9628 25.0432H70.7647L74.6439 16.8577ZM73.161 22.4571H76.8623L75.0354 18.3999L73.161 22.4571Z" fill="#000814"/>
<path d="M32.312 28H32.1164V26.4842H32.312V28ZM34.5118 26.6665H34.1339V28H33.9384V26.6665H33.5627V26.4842H34.5118V26.6665ZM38.1958 27.4749C38.1782 27.9253 38.0135 28.0264 37.7081 28.0264C37.3566 28.0264 37.1962 27.8946 37.1962 27.2443C37.1962 26.572 37.3698 26.4578 37.7081 26.4578C38.0025 26.4578 38.176 26.5435 38.1936 26.9894H37.9915C37.9739 26.6929 37.8817 26.6467 37.7081 26.6467C37.4884 26.6467 37.3961 26.7126 37.3961 27.2443C37.3961 27.754 37.4884 27.8374 37.7081 27.8374C37.8817 27.8374 37.9761 27.7825 37.9937 27.4749H38.1958ZM39.9998 28.0264C39.6307 28.0264 39.4703 27.8946 39.4703 27.2443C39.4703 26.572 39.6483 26.4578 39.9998 26.4578C40.3513 26.4578 40.5292 26.572 40.5292 27.2443C40.5292 27.8946 40.3689 28.0264 39.9998 28.0264ZM39.9998 27.8374C40.2305 27.8374 40.3293 27.754 40.3293 27.2443C40.3293 26.7148 40.2305 26.6467 39.9998 26.6467C39.7647 26.6467 39.6702 26.7126 39.6702 27.2443C39.6702 27.754 39.7647 27.8374 39.9998 27.8374ZM42.0326 26.9191V28H41.8414V26.4842H41.9667L42.3907 27.1718L42.8081 26.4842H42.9333V28H42.74V26.9257L42.3863 27.4684L42.0326 26.9191ZM45.1665 27.007C45.1665 27.3871 45.0303 27.5452 44.7316 27.5452H44.457V28H44.2614V26.4842H44.7294C45.0369 26.4842 45.1665 26.6292 45.1665 27.007ZM44.457 26.6665V27.3629H44.7316C44.8985 27.3629 44.9666 27.2882 44.9666 27.007C44.9666 26.7302 44.9073 26.6665 44.7294 26.6665H44.457ZM46.7119 26.4842H46.8416L47.3161 28H47.114L47.0349 27.7342H46.512L46.4329 28H46.2308L46.7119 26.4842ZM46.5647 27.5628H46.9843L46.7756 26.862L46.5647 27.5628ZM48.673 26.4842L49.3101 27.5628V26.4842H49.4946V28H49.3694L48.7367 26.9477V28H48.5522V26.4842H48.673ZM50.9471 26.4842L51.2789 27.3651L51.6062 26.4842H51.8171L51.3755 27.6046V28H51.1734V27.6046L50.7318 26.4842H50.9471Z" fill="#000814"/>
<path d="M22.2207 15.7639H26.7198C34.1889 6.9852 44.1598 3.20031 51.5357 6.18554C53.1205 6.82699 55.4675 8.13798 57.7045 11.0363C55.4997 7.43687 52.9955 5.78481 51.3248 4.97286C49.3436 4.00996 47.1205 3.54088 44.7562 3.54096C37.5959 3.54113 29.1437 7.84409 22.2207 15.7639Z" fill="url(#paint0_linear_1277_55311)"/>
<path d="M20.541 26.729C20.5463 27.8484 20.6825 33.8647 25.4102 37.9844C28.1154 40.3417 31.023 40.9445 32.2301 41.1793C38.3869 42.3767 43.3278 39.4628 44.6985 38.5884C38.8372 41.2701 32.2581 40.3259 28.2543 36.3401C24.6296 32.7317 24.4514 27.96 24.4427 26.729H20.541Z" fill="url(#paint1_linear_1277_55311)"/>
<path d="M58.5636 26.7286C56.7586 29.8252 53.381 34.4873 47.5893 37.8612C44.6771 39.5576 36.0333 44.593 28.1562 40.8845C25.0242 39.41 23.0576 37.0448 21.9375 35.3756C22.9622 37.2819 24.9225 40.2215 28.3781 42.1606C36.6032 46.776 46.3282 41.8119 49.4939 40.1959C57.2019 36.2613 61.2923 30.0171 63.0979 26.7286H58.5636Z" fill="url(#paint2_linear_1277_55311)"/>
<path d="M45.5185 1.14893C36.3967 2.07156 29.2882 8.59558 29.3738 8.73211C29.4201 8.80601 34.5973 3.79027 42.6603 2.89716C45.7268 2.55745 51.0364 2.07497 55.3142 5.70917C59.4808 9.2489 59.9763 14.4399 60.0639 15.7621C61.4901 15.7762 62.9162 15.7902 64.3424 15.8043C64.1235 14.5144 62.6427 6.54876 55.6997 2.81993C52.9345 1.33478 50.1931 1.00002 48.0978 1.00002C47.0508 1.00002 46.1653 1.08356 45.5185 1.14893Z" fill="url(#paint3_linear_1277_55311)"/>
<defs>
<linearGradient id="paint0_linear_1277_55311" x1="22.2207" y1="9.65242" x2="57.7045" y2="9.65242" gradientUnits="userSpaceOnUse">
<stop stop-color="#9155A0"/>
<stop offset="0.0318333" stop-color="#9155A0"/>
<stop offset="1" stop-color="#55316F"/>
</linearGradient>
<linearGradient id="paint1_linear_1277_55311" x1="44.6984" y1="34.0964" x2="20.5411" y2="34.0964" gradientUnits="userSpaceOnUse">
<stop stop-color="#9155A0"/>
<stop offset="0.0318333" stop-color="#9155A0"/>
<stop offset="1" stop-color="#55316F"/>
</linearGradient>
<linearGradient id="paint2_linear_1277_55311" x1="63.0979" y1="35.4029" x2="21.9375" y2="35.4029" gradientUnits="userSpaceOnUse">
<stop stop-color="#894F9A"/>
<stop offset="0.0318333" stop-color="#894F9A"/>
<stop offset="1" stop-color="#683D8F"/>
</linearGradient>
<linearGradient id="paint3_linear_1277_55311" x1="29.373" y1="8.40216" x2="64.3424" y2="8.40216" gradientUnits="userSpaceOnUse">
<stop stop-color="#9155A0"/>
<stop offset="0.0318333" stop-color="#9155A0"/>
<stop offset="1" stop-color="#55316F"/>
</linearGradient>
</defs>
</svg>
